G04 EAGLE Gerber RS-274X export*
G75*
%MOMM*%
%FSLAX34Y34*%
%LPD*%
%INTop Copper*%
%IPNEG*%
%AMOC8*
5,1,8,0,0,1.08239X$1,22.5*%
G01*
%ADD10C,0.000000*%
%ADD11R,0.700000X1.800000*%
%ADD12C,1.524000*%
%ADD13P,1.649562X8X112.500000*%
%ADD14R,2.000000X1.000000*%
%ADD15R,1.600000X1.300000*%
%ADD16R,1.300000X1.600000*%
%ADD17C,0.508000*%
%ADD18C,1.350000*%
%ADD19C,0.609600*%

G36*
X380286Y10175D02*
X380286Y10175D01*
X380412Y10182D01*
X380459Y10195D01*
X380507Y10201D01*
X380626Y10243D01*
X380747Y10278D01*
X380789Y10302D01*
X380835Y10318D01*
X380941Y10387D01*
X381051Y10448D01*
X381097Y10488D01*
X381127Y10507D01*
X381161Y10542D01*
X381237Y10607D01*
X536893Y166263D01*
X536972Y166362D01*
X537056Y166455D01*
X537080Y166498D01*
X537110Y166536D01*
X537164Y166650D01*
X537225Y166760D01*
X537238Y166807D01*
X537259Y166851D01*
X537285Y166974D01*
X537320Y167096D01*
X537325Y167157D01*
X537332Y167191D01*
X537331Y167239D01*
X537339Y167340D01*
X537339Y279091D01*
X537322Y279240D01*
X537310Y279390D01*
X537302Y279413D01*
X537299Y279437D01*
X537249Y279579D01*
X537203Y279722D01*
X537190Y279743D01*
X537182Y279765D01*
X537100Y279892D01*
X537023Y280021D01*
X537006Y280038D01*
X536993Y280058D01*
X536884Y280163D01*
X536780Y280270D01*
X536760Y280283D01*
X536742Y280300D01*
X536613Y280378D01*
X536487Y280459D01*
X536464Y280467D01*
X536443Y280479D01*
X536300Y280525D01*
X536158Y280575D01*
X536134Y280578D01*
X536111Y280585D01*
X535962Y280597D01*
X535812Y280614D01*
X535788Y280611D01*
X535764Y280613D01*
X535615Y280591D01*
X535466Y280574D01*
X535438Y280565D01*
X535419Y280562D01*
X535375Y280544D01*
X535233Y280498D01*
X531933Y279131D01*
X525667Y279131D01*
X519879Y281529D01*
X515449Y285959D01*
X514322Y288680D01*
X514275Y288764D01*
X514238Y288852D01*
X514191Y288916D01*
X514152Y288985D01*
X514088Y289056D01*
X514032Y289133D01*
X513971Y289184D01*
X513918Y289243D01*
X513840Y289298D01*
X513767Y289360D01*
X513697Y289396D01*
X513632Y289441D01*
X513543Y289476D01*
X513458Y289520D01*
X513381Y289540D01*
X513307Y289569D01*
X513213Y289583D01*
X513120Y289607D01*
X513041Y289608D01*
X512963Y289620D01*
X512867Y289612D01*
X512772Y289614D01*
X512694Y289598D01*
X512615Y289591D01*
X512524Y289562D01*
X512431Y289542D01*
X512359Y289508D01*
X512284Y289484D01*
X512202Y289435D01*
X512115Y289394D01*
X512053Y289345D01*
X511985Y289304D01*
X511916Y289238D01*
X511841Y289178D01*
X511770Y289096D01*
X511735Y289061D01*
X511717Y289034D01*
X511682Y288993D01*
X511150Y288261D01*
X510019Y287130D01*
X508725Y286190D01*
X507300Y285464D01*
X505939Y285021D01*
X505939Y301484D01*
X505936Y301510D01*
X505938Y301536D01*
X505916Y301683D01*
X505899Y301830D01*
X505891Y301855D01*
X505887Y301881D01*
X505832Y302018D01*
X505782Y302158D01*
X505768Y302180D01*
X505758Y302205D01*
X505673Y302326D01*
X505593Y302451D01*
X505574Y302469D01*
X505559Y302491D01*
X505543Y302505D01*
X505625Y302590D01*
X505639Y302613D01*
X505656Y302632D01*
X505728Y302762D01*
X505804Y302889D01*
X505812Y302914D01*
X505825Y302937D01*
X505865Y303080D01*
X505910Y303221D01*
X505912Y303247D01*
X505920Y303272D01*
X505939Y303516D01*
X505939Y319979D01*
X507300Y319536D01*
X508725Y318810D01*
X510019Y317870D01*
X511150Y316739D01*
X511682Y316007D01*
X511747Y315937D01*
X511804Y315860D01*
X511864Y315809D01*
X511918Y315751D01*
X511997Y315697D01*
X512070Y315635D01*
X512140Y315599D01*
X512206Y315554D01*
X512295Y315520D01*
X512380Y315476D01*
X512457Y315457D01*
X512531Y315428D01*
X512625Y315415D01*
X512718Y315392D01*
X512797Y315391D01*
X512876Y315380D01*
X512971Y315388D01*
X513067Y315387D01*
X513144Y315404D01*
X513223Y315411D01*
X513314Y315441D01*
X513407Y315461D01*
X513479Y315495D01*
X513554Y315520D01*
X513636Y315570D01*
X513722Y315611D01*
X513784Y315660D01*
X513851Y315702D01*
X513920Y315769D01*
X513994Y315828D01*
X514043Y315891D01*
X514100Y315946D01*
X514151Y316027D01*
X514210Y316102D01*
X514260Y316199D01*
X514286Y316241D01*
X514297Y316271D01*
X514322Y316320D01*
X515449Y319041D01*
X519879Y323471D01*
X525667Y325869D01*
X531933Y325869D01*
X535233Y324502D01*
X535378Y324460D01*
X535521Y324415D01*
X535545Y324413D01*
X535568Y324406D01*
X535719Y324399D01*
X535868Y324387D01*
X535892Y324390D01*
X535916Y324389D01*
X536064Y324416D01*
X536213Y324438D01*
X536235Y324447D01*
X536259Y324452D01*
X536397Y324512D01*
X536537Y324567D01*
X536557Y324581D01*
X536579Y324590D01*
X536700Y324680D01*
X536823Y324766D01*
X536839Y324784D01*
X536859Y324798D01*
X536956Y324913D01*
X537056Y325025D01*
X537068Y325046D01*
X537084Y325064D01*
X537152Y325198D01*
X537225Y325330D01*
X537231Y325353D01*
X537242Y325375D01*
X537279Y325520D01*
X537320Y325665D01*
X537322Y325694D01*
X537327Y325713D01*
X537327Y325760D01*
X537339Y325909D01*
X537339Y330816D01*
X537336Y330842D01*
X537338Y330868D01*
X537316Y331015D01*
X537299Y331162D01*
X537291Y331187D01*
X537287Y331213D01*
X537232Y331351D01*
X537182Y331490D01*
X537168Y331512D01*
X537158Y331537D01*
X537073Y331658D01*
X536993Y331783D01*
X536974Y331801D01*
X536959Y331823D01*
X536849Y331922D01*
X536742Y332025D01*
X536720Y332039D01*
X536700Y332056D01*
X536570Y332128D01*
X536443Y332204D01*
X536418Y332212D01*
X536395Y332225D01*
X536252Y332265D01*
X536111Y332310D01*
X536085Y332312D01*
X536060Y332320D01*
X535816Y332339D01*
X478726Y332339D01*
X478626Y332328D01*
X478526Y332326D01*
X478454Y332308D01*
X478380Y332299D01*
X478285Y332266D01*
X478188Y332241D01*
X478122Y332207D01*
X478052Y332182D01*
X477967Y332127D01*
X477878Y332081D01*
X477821Y332033D01*
X477759Y331993D01*
X477689Y331921D01*
X477613Y331856D01*
X477568Y331796D01*
X477517Y331742D01*
X477465Y331656D01*
X477405Y331575D01*
X477376Y331507D01*
X477338Y331443D01*
X477307Y331347D01*
X477267Y331255D01*
X477254Y331182D01*
X477232Y331111D01*
X477224Y331011D01*
X477206Y330912D01*
X477210Y330838D01*
X477204Y330764D01*
X477219Y330664D01*
X477224Y330564D01*
X477244Y330493D01*
X477255Y330419D01*
X477292Y330326D01*
X477320Y330229D01*
X477357Y330164D01*
X477384Y330095D01*
X477441Y330013D01*
X477490Y329925D01*
X477556Y329849D01*
X477583Y329809D01*
X477609Y329785D01*
X477649Y329739D01*
X481578Y325810D01*
X481580Y325808D01*
X481581Y325807D01*
X481718Y325699D01*
X481851Y325593D01*
X481853Y325592D01*
X481855Y325591D01*
X482072Y325479D01*
X486921Y323471D01*
X491351Y319041D01*
X492478Y316320D01*
X492525Y316236D01*
X492562Y316148D01*
X492609Y316084D01*
X492648Y316015D01*
X492712Y315944D01*
X492768Y315867D01*
X492829Y315816D01*
X492882Y315757D01*
X492960Y315702D01*
X493033Y315640D01*
X493103Y315604D01*
X493168Y315559D01*
X493257Y315524D01*
X493342Y315479D01*
X493419Y315460D01*
X493493Y315431D01*
X493587Y315417D01*
X493680Y315393D01*
X493759Y315392D01*
X493837Y315380D01*
X493933Y315388D01*
X494028Y315386D01*
X494106Y315402D01*
X494185Y315409D01*
X494276Y315438D01*
X494369Y315458D01*
X494441Y315492D01*
X494516Y315516D01*
X494598Y315565D01*
X494685Y315606D01*
X494747Y315655D01*
X494815Y315696D01*
X494884Y315762D01*
X494959Y315822D01*
X495030Y315904D01*
X495065Y315939D01*
X495083Y315966D01*
X495118Y316007D01*
X495650Y316739D01*
X496781Y317870D01*
X498075Y318810D01*
X499500Y319536D01*
X500861Y319979D01*
X500861Y303516D01*
X500864Y303490D01*
X500862Y303464D01*
X500884Y303317D01*
X500901Y303170D01*
X500909Y303145D01*
X500913Y303119D01*
X500968Y302982D01*
X501018Y302842D01*
X501032Y302820D01*
X501042Y302795D01*
X501127Y302674D01*
X501207Y302549D01*
X501226Y302531D01*
X501241Y302509D01*
X501257Y302495D01*
X501175Y302410D01*
X501161Y302387D01*
X501144Y302368D01*
X501072Y302238D01*
X500996Y302111D01*
X500988Y302086D01*
X500975Y302063D01*
X500935Y301920D01*
X500890Y301779D01*
X500887Y301753D01*
X500880Y301728D01*
X500861Y301484D01*
X500861Y285021D01*
X499500Y285464D01*
X498075Y286190D01*
X496781Y287130D01*
X495650Y288261D01*
X495118Y288993D01*
X495053Y289063D01*
X494996Y289140D01*
X494936Y289191D01*
X494882Y289249D01*
X494803Y289303D01*
X494730Y289365D01*
X494660Y289401D01*
X494594Y289446D01*
X494505Y289480D01*
X494420Y289524D01*
X494343Y289543D01*
X494269Y289572D01*
X494175Y289585D01*
X494082Y289608D01*
X494003Y289609D01*
X493924Y289620D01*
X493829Y289612D01*
X493733Y289613D01*
X493656Y289596D01*
X493577Y289589D01*
X493486Y289559D01*
X493393Y289539D01*
X493321Y289505D01*
X493246Y289480D01*
X493164Y289430D01*
X493078Y289389D01*
X493016Y289340D01*
X492949Y289298D01*
X492880Y289231D01*
X492806Y289172D01*
X492757Y289110D01*
X492700Y289054D01*
X492649Y288973D01*
X492590Y288898D01*
X492540Y288801D01*
X492514Y288760D01*
X492503Y288729D01*
X492478Y288680D01*
X491351Y285959D01*
X489115Y283723D01*
X489036Y283624D01*
X488952Y283530D01*
X488928Y283488D01*
X488898Y283450D01*
X488844Y283336D01*
X488783Y283225D01*
X488770Y283178D01*
X488749Y283135D01*
X488723Y283011D01*
X488688Y282889D01*
X488683Y282829D01*
X488676Y282794D01*
X488677Y282746D01*
X488669Y282646D01*
X488669Y153378D01*
X487044Y149457D01*
X358543Y20956D01*
X354622Y19331D01*
X72878Y19331D01*
X68957Y20956D01*
X18456Y71457D01*
X16831Y75378D01*
X16831Y179622D01*
X18456Y183543D01*
X43957Y209044D01*
X47878Y210669D01*
X62166Y210669D01*
X62291Y210683D01*
X62417Y210690D01*
X62464Y210703D01*
X62512Y210709D01*
X62631Y210751D01*
X62752Y210786D01*
X62794Y210810D01*
X62840Y210826D01*
X62946Y210895D01*
X63057Y210956D01*
X63103Y210996D01*
X63133Y211015D01*
X63166Y211050D01*
X63243Y211115D01*
X68102Y215974D01*
X68118Y215995D01*
X68138Y216012D01*
X68227Y216131D01*
X68319Y216247D01*
X68330Y216271D01*
X68346Y216292D01*
X68404Y216428D01*
X68468Y216562D01*
X68473Y216588D01*
X68484Y216612D01*
X68510Y216758D01*
X68541Y216903D01*
X68541Y216929D01*
X68545Y216955D01*
X68538Y217104D01*
X68535Y217251D01*
X68529Y217277D01*
X68527Y217303D01*
X68486Y217445D01*
X68450Y217589D01*
X68438Y217613D01*
X68431Y217638D01*
X68358Y217767D01*
X68290Y217899D01*
X68273Y217919D01*
X68261Y217942D01*
X68102Y218128D01*
X64639Y221591D01*
X64639Y223261D01*
X73784Y223261D01*
X73810Y223264D01*
X73836Y223262D01*
X73983Y223284D01*
X74130Y223301D01*
X74155Y223309D01*
X74181Y223313D01*
X74318Y223368D01*
X74458Y223418D01*
X74480Y223432D01*
X74505Y223442D01*
X74626Y223527D01*
X74751Y223607D01*
X74769Y223626D01*
X74791Y223641D01*
X74890Y223751D01*
X74993Y223858D01*
X75007Y223880D01*
X75024Y223900D01*
X75096Y224030D01*
X75172Y224157D01*
X75180Y224182D01*
X75193Y224205D01*
X75233Y224348D01*
X75278Y224489D01*
X75280Y224515D01*
X75287Y224540D01*
X75307Y224784D01*
X75307Y225293D01*
X75816Y225293D01*
X75842Y225296D01*
X75868Y225294D01*
X76015Y225316D01*
X76162Y225333D01*
X76187Y225342D01*
X76213Y225346D01*
X76351Y225400D01*
X76490Y225450D01*
X76512Y225465D01*
X76537Y225474D01*
X76658Y225559D01*
X76783Y225639D01*
X76801Y225658D01*
X76823Y225673D01*
X76922Y225783D01*
X77025Y225890D01*
X77039Y225913D01*
X77056Y225932D01*
X77128Y226062D01*
X77204Y226189D01*
X77212Y226214D01*
X77225Y226237D01*
X77265Y226380D01*
X77310Y226521D01*
X77312Y226547D01*
X77320Y226572D01*
X77339Y226816D01*
X77339Y235961D01*
X79009Y235961D01*
X82472Y232498D01*
X82492Y232482D01*
X82509Y232462D01*
X82629Y232373D01*
X82745Y232281D01*
X82768Y232270D01*
X82789Y232254D01*
X82926Y232196D01*
X83060Y232132D01*
X83085Y232127D01*
X83109Y232116D01*
X83256Y232090D01*
X83400Y232059D01*
X83427Y232059D01*
X83452Y232055D01*
X83601Y232062D01*
X83749Y232065D01*
X83774Y232071D01*
X83801Y232073D01*
X83943Y232114D01*
X84087Y232150D01*
X84110Y232162D01*
X84135Y232169D01*
X84265Y232242D01*
X84397Y232310D01*
X84417Y232327D01*
X84440Y232339D01*
X84626Y232498D01*
X93677Y241549D01*
X106723Y241549D01*
X113605Y234667D01*
X113665Y234620D01*
X113718Y234565D01*
X113801Y234512D01*
X113878Y234451D01*
X113947Y234418D01*
X114011Y234377D01*
X114104Y234344D01*
X114193Y234302D01*
X114268Y234286D01*
X114340Y234260D01*
X114438Y234249D01*
X114534Y234228D01*
X114610Y234230D01*
X114686Y234221D01*
X114784Y234233D01*
X114882Y234234D01*
X114956Y234253D01*
X115032Y234262D01*
X115174Y234308D01*
X115220Y234319D01*
X115237Y234328D01*
X115265Y234337D01*
X118383Y235629D01*
X141617Y235629D01*
X144605Y234391D01*
X145559Y233437D01*
X145638Y233374D01*
X145710Y233305D01*
X145774Y233266D01*
X145832Y233220D01*
X145923Y233177D01*
X146009Y233126D01*
X146080Y233103D01*
X146147Y233071D01*
X146245Y233050D01*
X146341Y233020D01*
X146415Y233014D01*
X146488Y232998D01*
X146588Y233000D01*
X146688Y232992D01*
X146762Y233003D01*
X146836Y233004D01*
X146933Y233028D01*
X147033Y233043D01*
X147102Y233071D01*
X147174Y233089D01*
X147263Y233135D01*
X147357Y233172D01*
X147418Y233214D01*
X147484Y233249D01*
X147560Y233314D01*
X147643Y233371D01*
X147693Y233426D01*
X147749Y233474D01*
X147809Y233555D01*
X147876Y233630D01*
X147912Y233695D01*
X147957Y233755D01*
X147996Y233847D01*
X148045Y233935D01*
X148065Y234006D01*
X148095Y234075D01*
X148112Y234173D01*
X148140Y234270D01*
X148148Y234370D01*
X148156Y234418D01*
X148154Y234453D01*
X148159Y234514D01*
X148159Y234635D01*
X148332Y235281D01*
X148667Y235860D01*
X149140Y236333D01*
X149719Y236668D01*
X150365Y236841D01*
X152451Y236841D01*
X152451Y236765D01*
X152456Y236715D01*
X152454Y236665D01*
X152476Y236543D01*
X152491Y236419D01*
X152508Y236372D01*
X152517Y236322D01*
X152566Y236208D01*
X152608Y236091D01*
X152635Y236049D01*
X152655Y236003D01*
X152730Y235903D01*
X152797Y235798D01*
X152833Y235763D01*
X152863Y235723D01*
X152958Y235643D01*
X153048Y235556D01*
X153091Y235530D01*
X153129Y235498D01*
X153240Y235441D01*
X153347Y235377D01*
X153395Y235362D01*
X153440Y235339D01*
X153560Y235309D01*
X153679Y235271D01*
X153729Y235267D01*
X153778Y235255D01*
X153902Y235253D01*
X154026Y235243D01*
X154076Y235250D01*
X154126Y235250D01*
X154248Y235276D01*
X154371Y235295D01*
X154418Y235313D01*
X154467Y235324D01*
X154579Y235377D01*
X154695Y235423D01*
X154736Y235452D01*
X154782Y235474D01*
X154879Y235551D01*
X154981Y235622D01*
X155015Y235660D01*
X155054Y235691D01*
X155131Y235789D01*
X155214Y235881D01*
X155239Y235925D01*
X155270Y235965D01*
X155381Y236182D01*
X155833Y237274D01*
X155834Y237276D01*
X155835Y237278D01*
X155881Y237442D01*
X155907Y237531D01*
X155932Y237563D01*
X156000Y237696D01*
X156024Y237737D01*
X156030Y237755D01*
X156043Y237781D01*
X156115Y237954D01*
X156116Y237956D01*
X156117Y237958D01*
X156165Y238127D01*
X156211Y238290D01*
X156211Y238292D01*
X156212Y238294D01*
X156231Y238538D01*
X156231Y243050D01*
X156217Y243176D01*
X156210Y243302D01*
X156197Y243348D01*
X156191Y243396D01*
X156149Y243515D01*
X156114Y243637D01*
X156090Y243679D01*
X156074Y243724D01*
X156005Y243830D01*
X155944Y243941D01*
X155904Y243987D01*
X155885Y244017D01*
X155850Y244051D01*
X155785Y244127D01*
X121227Y278685D01*
X121128Y278764D01*
X121034Y278848D01*
X120992Y278872D01*
X120954Y278902D01*
X120840Y278956D01*
X120729Y279017D01*
X120683Y279030D01*
X120639Y279051D01*
X120516Y279077D01*
X120394Y279112D01*
X120333Y279117D01*
X120298Y279124D01*
X120250Y279123D01*
X120150Y279131D01*
X119267Y279131D01*
X113479Y281529D01*
X109049Y285959D01*
X107922Y288680D01*
X107875Y288764D01*
X107838Y288852D01*
X107791Y288916D01*
X107752Y288985D01*
X107688Y289056D01*
X107632Y289133D01*
X107571Y289184D01*
X107518Y289243D01*
X107440Y289298D01*
X107367Y289360D01*
X107297Y289396D01*
X107232Y289441D01*
X107143Y289476D01*
X107058Y289521D01*
X106981Y289540D01*
X106907Y289569D01*
X106813Y289583D01*
X106720Y289607D01*
X106641Y289608D01*
X106563Y289620D01*
X106467Y289612D01*
X106372Y289614D01*
X106294Y289598D01*
X106215Y289591D01*
X106124Y289562D01*
X106031Y289542D01*
X105959Y289508D01*
X105884Y289484D01*
X105802Y289435D01*
X105715Y289394D01*
X105653Y289345D01*
X105585Y289304D01*
X105516Y289238D01*
X105441Y289178D01*
X105370Y289096D01*
X105335Y289061D01*
X105317Y289034D01*
X105282Y288993D01*
X104750Y288261D01*
X103619Y287130D01*
X102325Y286190D01*
X100900Y285464D01*
X99539Y285021D01*
X99539Y301484D01*
X99536Y301510D01*
X99538Y301536D01*
X99516Y301683D01*
X99499Y301830D01*
X99491Y301855D01*
X99487Y301881D01*
X99432Y302018D01*
X99382Y302158D01*
X99368Y302180D01*
X99358Y302205D01*
X99273Y302326D01*
X99193Y302451D01*
X99174Y302469D01*
X99159Y302491D01*
X99049Y302590D01*
X98942Y302693D01*
X98920Y302707D01*
X98900Y302724D01*
X98770Y302796D01*
X98643Y302872D01*
X98618Y302880D01*
X98595Y302893D01*
X98452Y302933D01*
X98311Y302978D01*
X98285Y302980D01*
X98260Y302987D01*
X98016Y303007D01*
X95984Y303007D01*
X95958Y303004D01*
X95932Y303006D01*
X95785Y302984D01*
X95638Y302967D01*
X95613Y302958D01*
X95587Y302954D01*
X95449Y302900D01*
X95310Y302850D01*
X95288Y302835D01*
X95263Y302826D01*
X95142Y302741D01*
X95017Y302661D01*
X94999Y302642D01*
X94977Y302627D01*
X94878Y302517D01*
X94775Y302410D01*
X94761Y302387D01*
X94744Y302368D01*
X94672Y302238D01*
X94596Y302111D01*
X94588Y302086D01*
X94575Y302063D01*
X94535Y301920D01*
X94490Y301779D01*
X94487Y301753D01*
X94480Y301728D01*
X94461Y301484D01*
X94461Y285021D01*
X93100Y285464D01*
X91675Y286190D01*
X90381Y287130D01*
X89250Y288261D01*
X88718Y288993D01*
X88653Y289063D01*
X88596Y289140D01*
X88536Y289191D01*
X88482Y289249D01*
X88403Y289303D01*
X88330Y289365D01*
X88260Y289401D01*
X88194Y289446D01*
X88105Y289480D01*
X88020Y289524D01*
X87943Y289543D01*
X87869Y289572D01*
X87775Y289585D01*
X87682Y289608D01*
X87603Y289609D01*
X87524Y289620D01*
X87429Y289612D01*
X87333Y289613D01*
X87256Y289596D01*
X87177Y289589D01*
X87086Y289559D01*
X86993Y289539D01*
X86921Y289505D01*
X86846Y289480D01*
X86764Y289430D01*
X86678Y289389D01*
X86616Y289340D01*
X86549Y289298D01*
X86480Y289231D01*
X86406Y289172D01*
X86357Y289110D01*
X86300Y289054D01*
X86249Y288973D01*
X86190Y288898D01*
X86140Y288801D01*
X86114Y288760D01*
X86103Y288729D01*
X86078Y288680D01*
X84951Y285959D01*
X80521Y281529D01*
X74912Y279206D01*
X74889Y279193D01*
X74864Y279185D01*
X74737Y279108D01*
X74608Y279036D01*
X74588Y279019D01*
X74566Y279005D01*
X74459Y278902D01*
X74350Y278802D01*
X74335Y278781D01*
X74316Y278762D01*
X74236Y278638D01*
X74151Y278516D01*
X74142Y278491D01*
X74128Y278469D01*
X74078Y278329D01*
X74024Y278191D01*
X74020Y278165D01*
X74011Y278141D01*
X73994Y277993D01*
X73973Y277847D01*
X73975Y277820D01*
X73972Y277794D01*
X73989Y277647D01*
X74002Y277499D01*
X74010Y277474D01*
X74013Y277448D01*
X74088Y277215D01*
X74129Y277117D01*
X74129Y260044D01*
X74143Y259918D01*
X74150Y259792D01*
X74163Y259746D01*
X74169Y259698D01*
X74211Y259579D01*
X74246Y259457D01*
X74270Y259415D01*
X74286Y259370D01*
X74355Y259263D01*
X74416Y259153D01*
X74456Y259107D01*
X74475Y259077D01*
X74510Y259043D01*
X74575Y258967D01*
X75114Y258428D01*
X77379Y252960D01*
X77379Y247040D01*
X75114Y241572D01*
X72103Y238561D01*
X72040Y238482D01*
X71971Y238410D01*
X71932Y238346D01*
X71886Y238288D01*
X71843Y238197D01*
X71792Y238111D01*
X71769Y238040D01*
X71737Y237973D01*
X71716Y237875D01*
X71685Y237779D01*
X71680Y237705D01*
X71664Y237632D01*
X71666Y237532D01*
X71658Y237432D01*
X71669Y237358D01*
X71670Y237284D01*
X71694Y237187D01*
X71709Y237087D01*
X71737Y237018D01*
X71755Y236946D01*
X71801Y236857D01*
X71838Y236763D01*
X71880Y236702D01*
X71914Y236636D01*
X71980Y236560D01*
X72037Y236477D01*
X72092Y236427D01*
X72140Y236371D01*
X72221Y236311D01*
X72261Y236275D01*
X72261Y228339D01*
X64639Y228339D01*
X64639Y230009D01*
X67372Y232741D01*
X67403Y232781D01*
X67441Y232815D01*
X67511Y232917D01*
X67589Y233014D01*
X67610Y233060D01*
X67639Y233101D01*
X67684Y233217D01*
X67738Y233330D01*
X67748Y233379D01*
X67767Y233426D01*
X67785Y233549D01*
X67811Y233670D01*
X67810Y233721D01*
X67817Y233770D01*
X67807Y233895D01*
X67805Y234019D01*
X67793Y234068D01*
X67788Y234118D01*
X67750Y234236D01*
X67720Y234357D01*
X67697Y234401D01*
X67681Y234449D01*
X67617Y234556D01*
X67560Y234667D01*
X67528Y234705D01*
X67502Y234748D01*
X67415Y234837D01*
X67334Y234932D01*
X67294Y234962D01*
X67259Y234998D01*
X67154Y235065D01*
X67054Y235139D01*
X67008Y235159D01*
X66965Y235186D01*
X66848Y235228D01*
X66734Y235277D01*
X66685Y235286D01*
X66637Y235303D01*
X66514Y235317D01*
X66391Y235339D01*
X66341Y235336D01*
X66291Y235342D01*
X66167Y235327D01*
X66043Y235321D01*
X65995Y235307D01*
X65945Y235301D01*
X65712Y235226D01*
X65708Y235224D01*
X65460Y235121D01*
X59540Y235121D01*
X54072Y237386D01*
X49886Y241572D01*
X47621Y247040D01*
X47621Y249848D01*
X47618Y249874D01*
X47620Y249900D01*
X47598Y250047D01*
X47581Y250194D01*
X47573Y250219D01*
X47569Y250245D01*
X47514Y250383D01*
X47464Y250522D01*
X47450Y250544D01*
X47440Y250569D01*
X47355Y250690D01*
X47275Y250815D01*
X47256Y250833D01*
X47241Y250855D01*
X47131Y250954D01*
X47024Y251057D01*
X47002Y251071D01*
X46982Y251088D01*
X46852Y251160D01*
X46725Y251236D01*
X46700Y251244D01*
X46677Y251257D01*
X46534Y251297D01*
X46393Y251342D01*
X46367Y251344D01*
X46342Y251352D01*
X46098Y251371D01*
X32383Y251371D01*
X29395Y252609D01*
X27109Y254895D01*
X25871Y257883D01*
X25871Y261692D01*
X25857Y261818D01*
X25850Y261945D01*
X25837Y261991D01*
X25831Y262038D01*
X25789Y262157D01*
X25753Y262280D01*
X25730Y262321D01*
X25714Y262366D01*
X25700Y262387D01*
X23923Y266677D01*
X23923Y271123D01*
X24202Y271796D01*
X24209Y271820D01*
X24221Y271843D01*
X24257Y271988D01*
X24298Y272131D01*
X24299Y272157D01*
X24305Y272182D01*
X24317Y272426D01*
X23830Y288167D01*
X23808Y288318D01*
X23790Y288470D01*
X23782Y288494D01*
X23780Y288511D01*
X23763Y288554D01*
X23756Y288575D01*
X23756Y290536D01*
X23754Y290555D01*
X23756Y290583D01*
X23694Y292561D01*
X23695Y292564D01*
X23737Y292711D01*
X23739Y292737D01*
X23743Y292754D01*
X23744Y292799D01*
X23746Y292821D01*
X24496Y294633D01*
X24501Y294651D01*
X24513Y294677D01*
X25214Y296528D01*
X25215Y296530D01*
X25310Y296650D01*
X25322Y296673D01*
X25332Y296687D01*
X25350Y296728D01*
X25361Y296749D01*
X26748Y298136D01*
X26759Y298150D01*
X26781Y298169D01*
X28136Y299611D01*
X28138Y299613D01*
X28272Y299687D01*
X28291Y299704D01*
X28306Y299713D01*
X28339Y299744D01*
X28458Y299846D01*
X30005Y301393D01*
X30084Y301492D01*
X30168Y301586D01*
X30192Y301628D01*
X30222Y301666D01*
X30276Y301780D01*
X30337Y301891D01*
X30350Y301937D01*
X30371Y301981D01*
X30397Y302105D01*
X30432Y302226D01*
X30437Y302287D01*
X30444Y302322D01*
X30443Y302370D01*
X30451Y302470D01*
X30451Y313253D01*
X32849Y319041D01*
X37279Y323471D01*
X43067Y325869D01*
X49333Y325869D01*
X55121Y323471D01*
X57823Y320769D01*
X57843Y320753D01*
X57860Y320733D01*
X57980Y320645D01*
X58096Y320553D01*
X58120Y320541D01*
X58141Y320526D01*
X58277Y320467D01*
X58411Y320404D01*
X58437Y320398D01*
X58461Y320388D01*
X58607Y320361D01*
X58752Y320330D01*
X58778Y320331D01*
X58804Y320326D01*
X58952Y320334D01*
X59100Y320336D01*
X59126Y320343D01*
X59152Y320344D01*
X59294Y320385D01*
X59438Y320421D01*
X59461Y320433D01*
X59487Y320441D01*
X59616Y320513D01*
X59748Y320581D01*
X59768Y320598D01*
X59791Y320611D01*
X59977Y320769D01*
X60274Y321066D01*
X60275Y321068D01*
X60277Y321069D01*
X60387Y321209D01*
X60491Y321339D01*
X60492Y321341D01*
X60493Y321343D01*
X60604Y321560D01*
X62125Y325231D01*
X65269Y328375D01*
X66215Y328767D01*
X66217Y328768D01*
X66219Y328769D01*
X66370Y328853D01*
X66520Y328937D01*
X66522Y328938D01*
X66523Y328939D01*
X66710Y329097D01*
X67351Y329739D01*
X67413Y329817D01*
X67483Y329890D01*
X67522Y329954D01*
X67568Y330012D01*
X67611Y330103D01*
X67662Y330189D01*
X67685Y330260D01*
X67717Y330327D01*
X67738Y330425D01*
X67768Y330521D01*
X67774Y330595D01*
X67790Y330668D01*
X67788Y330768D01*
X67796Y330868D01*
X67785Y330942D01*
X67784Y331016D01*
X67760Y331113D01*
X67745Y331213D01*
X67717Y331282D01*
X67699Y331354D01*
X67653Y331444D01*
X67616Y331537D01*
X67574Y331598D01*
X67539Y331664D01*
X67474Y331741D01*
X67417Y331823D01*
X67362Y331873D01*
X67314Y331929D01*
X67233Y331989D01*
X67158Y332056D01*
X67093Y332092D01*
X67033Y332137D01*
X66941Y332176D01*
X66853Y332225D01*
X66781Y332245D01*
X66713Y332275D01*
X66615Y332292D01*
X66518Y332320D01*
X66418Y332328D01*
X66370Y332336D01*
X66335Y332334D01*
X66274Y332339D01*
X11684Y332339D01*
X11658Y332336D01*
X11632Y332338D01*
X11485Y332316D01*
X11338Y332299D01*
X11313Y332291D01*
X11287Y332287D01*
X11149Y332232D01*
X11010Y332182D01*
X10988Y332168D01*
X10963Y332158D01*
X10842Y332073D01*
X10717Y331993D01*
X10699Y331974D01*
X10677Y331959D01*
X10578Y331849D01*
X10475Y331742D01*
X10461Y331720D01*
X10444Y331700D01*
X10372Y331570D01*
X10296Y331443D01*
X10288Y331418D01*
X10275Y331395D01*
X10235Y331252D01*
X10190Y331111D01*
X10188Y331085D01*
X10180Y331060D01*
X10161Y330816D01*
X10161Y11684D01*
X10164Y11658D01*
X10162Y11632D01*
X10184Y11485D01*
X10201Y11338D01*
X10209Y11313D01*
X10213Y11287D01*
X10268Y11149D01*
X10318Y11010D01*
X10332Y10988D01*
X10342Y10963D01*
X10427Y10842D01*
X10507Y10717D01*
X10526Y10699D01*
X10541Y10677D01*
X10651Y10578D01*
X10758Y10475D01*
X10780Y10461D01*
X10800Y10444D01*
X10930Y10372D01*
X11057Y10296D01*
X11082Y10288D01*
X11105Y10275D01*
X11248Y10235D01*
X11389Y10190D01*
X11415Y10188D01*
X11440Y10180D01*
X11684Y10161D01*
X380160Y10161D01*
X380286Y10175D01*
G37*
G36*
X305076Y100683D02*
X305076Y100683D01*
X305202Y100690D01*
X305248Y100703D01*
X305296Y100709D01*
X305415Y100751D01*
X305537Y100786D01*
X305579Y100810D01*
X305624Y100826D01*
X305730Y100895D01*
X305841Y100956D01*
X305887Y100996D01*
X305917Y101015D01*
X305951Y101050D01*
X306027Y101115D01*
X314485Y109573D01*
X314564Y109672D01*
X314648Y109766D01*
X314672Y109808D01*
X314702Y109846D01*
X314756Y109960D01*
X314817Y110071D01*
X314830Y110117D01*
X314851Y110161D01*
X314877Y110284D01*
X314912Y110406D01*
X314917Y110467D01*
X314924Y110502D01*
X314923Y110550D01*
X314931Y110650D01*
X314931Y282646D01*
X314917Y282771D01*
X314910Y282897D01*
X314897Y282944D01*
X314891Y282992D01*
X314849Y283111D01*
X314814Y283232D01*
X314790Y283274D01*
X314774Y283320D01*
X314705Y283426D01*
X314644Y283536D01*
X314604Y283583D01*
X314585Y283613D01*
X314550Y283646D01*
X314485Y283723D01*
X313977Y284231D01*
X313957Y284247D01*
X313940Y284267D01*
X313820Y284356D01*
X313704Y284447D01*
X313680Y284459D01*
X313659Y284474D01*
X313523Y284533D01*
X313389Y284596D01*
X313363Y284602D01*
X313339Y284612D01*
X313193Y284639D01*
X313048Y284670D01*
X313022Y284669D01*
X312996Y284674D01*
X312848Y284666D01*
X312700Y284664D01*
X312674Y284657D01*
X312648Y284656D01*
X312506Y284615D01*
X312362Y284579D01*
X312339Y284567D01*
X312313Y284559D01*
X312184Y284487D01*
X312052Y284419D01*
X312032Y284402D01*
X312009Y284389D01*
X311823Y284231D01*
X309121Y281529D01*
X303333Y279131D01*
X302350Y279131D01*
X302224Y279117D01*
X302098Y279110D01*
X302052Y279097D01*
X302004Y279091D01*
X301885Y279049D01*
X301763Y279014D01*
X301721Y278990D01*
X301676Y278974D01*
X301570Y278905D01*
X301459Y278844D01*
X301413Y278804D01*
X301383Y278785D01*
X301349Y278750D01*
X301273Y278685D01*
X266915Y244327D01*
X266836Y244228D01*
X266752Y244134D01*
X266728Y244092D01*
X266698Y244054D01*
X266644Y243940D01*
X266583Y243829D01*
X266570Y243783D01*
X266549Y243739D01*
X266523Y243616D01*
X266488Y243494D01*
X266483Y243433D01*
X266476Y243398D01*
X266477Y243350D01*
X266469Y243250D01*
X266469Y238538D01*
X266469Y238536D01*
X266469Y238533D01*
X266490Y238353D01*
X266509Y238191D01*
X266509Y238189D01*
X266510Y238187D01*
X266585Y237955D01*
X266657Y237781D01*
X266694Y237714D01*
X266722Y237643D01*
X266778Y237563D01*
X266786Y237548D01*
X266791Y237511D01*
X266791Y237509D01*
X266791Y237507D01*
X266867Y237274D01*
X267319Y236182D01*
X267343Y236138D01*
X267360Y236091D01*
X267428Y235987D01*
X267488Y235878D01*
X267522Y235841D01*
X267549Y235798D01*
X267639Y235712D01*
X267722Y235620D01*
X267764Y235591D01*
X267800Y235556D01*
X267907Y235492D01*
X268009Y235422D01*
X268056Y235403D01*
X268099Y235377D01*
X268217Y235339D01*
X268333Y235294D01*
X268383Y235286D01*
X268431Y235271D01*
X268555Y235261D01*
X268678Y235243D01*
X268728Y235247D01*
X268778Y235243D01*
X268901Y235261D01*
X269025Y235272D01*
X269073Y235287D01*
X269123Y235295D01*
X269238Y235341D01*
X269357Y235379D01*
X269400Y235405D01*
X269447Y235423D01*
X269549Y235494D01*
X269655Y235559D01*
X269692Y235594D01*
X269733Y235622D01*
X269816Y235715D01*
X269905Y235801D01*
X269933Y235844D01*
X269966Y235881D01*
X270026Y235990D01*
X270094Y236095D01*
X270111Y236142D01*
X270135Y236186D01*
X270169Y236306D01*
X270210Y236423D01*
X270216Y236473D01*
X270230Y236522D01*
X270249Y236765D01*
X270249Y236841D01*
X272335Y236841D01*
X272981Y236668D01*
X273560Y236333D01*
X273773Y236120D01*
X273793Y236104D01*
X273811Y236084D01*
X273930Y235996D01*
X274046Y235904D01*
X274070Y235892D01*
X274091Y235877D01*
X274227Y235818D01*
X274361Y235755D01*
X274387Y235749D01*
X274411Y235739D01*
X274557Y235712D01*
X274702Y235681D01*
X274728Y235682D01*
X274754Y235677D01*
X274902Y235685D01*
X275050Y235687D01*
X275076Y235694D01*
X275102Y235695D01*
X275244Y235736D01*
X275388Y235772D01*
X275412Y235784D01*
X275437Y235792D01*
X275566Y235864D01*
X275698Y235932D01*
X275718Y235949D01*
X275741Y235962D01*
X275927Y236120D01*
X276140Y236333D01*
X276719Y236668D01*
X277365Y236841D01*
X279451Y236841D01*
X279451Y236765D01*
X279456Y236715D01*
X279454Y236665D01*
X279476Y236543D01*
X279491Y236419D01*
X279508Y236372D01*
X279517Y236322D01*
X279566Y236208D01*
X279608Y236091D01*
X279635Y236049D01*
X279655Y236002D01*
X279730Y235903D01*
X279797Y235798D01*
X279833Y235763D01*
X279863Y235723D01*
X279958Y235642D01*
X280048Y235556D01*
X280091Y235530D01*
X280129Y235498D01*
X280240Y235441D01*
X280347Y235377D01*
X280395Y235362D01*
X280440Y235339D01*
X280560Y235309D01*
X280679Y235271D01*
X280729Y235267D01*
X280778Y235255D01*
X280902Y235253D01*
X281026Y235243D01*
X281076Y235250D01*
X281126Y235250D01*
X281248Y235276D01*
X281371Y235295D01*
X281418Y235313D01*
X281467Y235324D01*
X281579Y235377D01*
X281695Y235423D01*
X281736Y235452D01*
X281782Y235474D01*
X281879Y235551D01*
X281981Y235622D01*
X282014Y235660D01*
X282054Y235691D01*
X282131Y235789D01*
X282214Y235881D01*
X282239Y235925D01*
X282270Y235965D01*
X282381Y236182D01*
X282833Y237274D01*
X282834Y237276D01*
X282835Y237278D01*
X282881Y237442D01*
X282907Y237531D01*
X282932Y237563D01*
X283000Y237696D01*
X283024Y237737D01*
X283030Y237755D01*
X283043Y237781D01*
X283509Y238905D01*
X285795Y241191D01*
X288783Y242429D01*
X299017Y242429D01*
X302005Y241191D01*
X304291Y238905D01*
X305529Y235917D01*
X305529Y214683D01*
X304291Y211695D01*
X302005Y209409D01*
X299017Y208171D01*
X288783Y208171D01*
X285795Y209409D01*
X283509Y211695D01*
X283043Y212819D01*
X283006Y212886D01*
X282978Y212957D01*
X282922Y213038D01*
X282914Y213052D01*
X282909Y213089D01*
X282909Y213091D01*
X282908Y213093D01*
X282895Y213136D01*
X282893Y213150D01*
X282880Y213182D01*
X282833Y213326D01*
X282381Y214418D01*
X282357Y214462D01*
X282340Y214509D01*
X282272Y214613D01*
X282212Y214722D01*
X282178Y214760D01*
X282151Y214802D01*
X282061Y214888D01*
X281978Y214980D01*
X281936Y215009D01*
X281900Y215044D01*
X281793Y215108D01*
X281691Y215179D01*
X281644Y215197D01*
X281601Y215223D01*
X281483Y215261D01*
X281367Y215306D01*
X281317Y215314D01*
X281269Y215329D01*
X281145Y215339D01*
X281022Y215357D01*
X280972Y215353D01*
X280922Y215357D01*
X280799Y215339D01*
X280675Y215328D01*
X280627Y215313D01*
X280577Y215305D01*
X280461Y215259D01*
X280343Y215221D01*
X280300Y215195D01*
X280253Y215177D01*
X280151Y215106D01*
X280045Y215042D01*
X280008Y215006D01*
X279967Y214978D01*
X279884Y214885D01*
X279795Y214799D01*
X279767Y214756D01*
X279734Y214719D01*
X279673Y214610D01*
X279606Y214505D01*
X279589Y214458D01*
X279565Y214414D01*
X279531Y214294D01*
X279490Y214177D01*
X279484Y214127D01*
X279470Y214078D01*
X279451Y213835D01*
X279451Y213759D01*
X277365Y213759D01*
X276719Y213932D01*
X276140Y214267D01*
X275927Y214480D01*
X275907Y214496D01*
X275890Y214516D01*
X275770Y214604D01*
X275654Y214696D01*
X275630Y214708D01*
X275609Y214723D01*
X275473Y214782D01*
X275339Y214845D01*
X275313Y214851D01*
X275289Y214861D01*
X275143Y214887D01*
X274998Y214919D01*
X274972Y214918D01*
X274946Y214923D01*
X274798Y214915D01*
X274650Y214913D01*
X274624Y214906D01*
X274598Y214905D01*
X274456Y214864D01*
X274312Y214828D01*
X274289Y214816D01*
X274263Y214808D01*
X274134Y214736D01*
X274002Y214668D01*
X273982Y214651D01*
X273959Y214638D01*
X273773Y214480D01*
X273560Y214267D01*
X272981Y213932D01*
X272335Y213759D01*
X270249Y213759D01*
X270249Y213835D01*
X270244Y213885D01*
X270246Y213935D01*
X270224Y214057D01*
X270209Y214181D01*
X270192Y214228D01*
X270183Y214278D01*
X270134Y214392D01*
X270092Y214509D01*
X270065Y214551D01*
X270045Y214597D01*
X269970Y214697D01*
X269903Y214802D01*
X269867Y214837D01*
X269837Y214877D01*
X269742Y214957D01*
X269652Y215044D01*
X269609Y215070D01*
X269571Y215102D01*
X269460Y215159D01*
X269353Y215223D01*
X269305Y215238D01*
X269260Y215261D01*
X269140Y215291D01*
X269021Y215329D01*
X268971Y215333D01*
X268922Y215345D01*
X268798Y215347D01*
X268674Y215357D01*
X268624Y215350D01*
X268574Y215350D01*
X268452Y215324D01*
X268329Y215305D01*
X268282Y215287D01*
X268233Y215276D01*
X268121Y215222D01*
X268005Y215177D01*
X267964Y215148D01*
X267918Y215126D01*
X267821Y215049D01*
X267719Y214978D01*
X267685Y214940D01*
X267646Y214909D01*
X267569Y214811D01*
X267486Y214719D01*
X267461Y214675D01*
X267430Y214635D01*
X267319Y214418D01*
X266867Y213326D01*
X266866Y213324D01*
X266865Y213322D01*
X266818Y213157D01*
X266818Y213155D01*
X266788Y213062D01*
X266768Y213037D01*
X266700Y212904D01*
X266676Y212863D01*
X266670Y212845D01*
X266657Y212819D01*
X266191Y211695D01*
X263905Y209409D01*
X261950Y208599D01*
X261906Y208575D01*
X261859Y208558D01*
X261754Y208490D01*
X261646Y208430D01*
X261608Y208396D01*
X261566Y208369D01*
X261480Y208279D01*
X261387Y208196D01*
X261359Y208154D01*
X261324Y208118D01*
X261260Y208011D01*
X261189Y207909D01*
X261171Y207862D01*
X261145Y207819D01*
X261107Y207701D01*
X261061Y207585D01*
X261054Y207535D01*
X261039Y207487D01*
X261029Y207363D01*
X261011Y207240D01*
X261015Y207190D01*
X261011Y207140D01*
X261029Y207017D01*
X261040Y206893D01*
X261055Y206845D01*
X261062Y206795D01*
X261108Y206680D01*
X261147Y206561D01*
X261173Y206518D01*
X261191Y206471D01*
X261262Y206369D01*
X261326Y206263D01*
X261361Y206226D01*
X261390Y206185D01*
X261482Y206102D01*
X261569Y206013D01*
X261612Y205985D01*
X261649Y205952D01*
X261758Y205892D01*
X261862Y205824D01*
X261910Y205807D01*
X261954Y205783D01*
X262074Y205749D01*
X262191Y205708D01*
X262241Y205702D01*
X262289Y205688D01*
X262533Y205669D01*
X277122Y205669D01*
X281043Y204044D01*
X304044Y181043D01*
X305669Y177122D01*
X305669Y122678D01*
X305645Y122620D01*
X305644Y122618D01*
X305643Y122616D01*
X305597Y122452D01*
X305549Y122285D01*
X305549Y122283D01*
X305548Y122281D01*
X305529Y122037D01*
X305529Y113083D01*
X304291Y110095D01*
X302005Y107809D01*
X299017Y106571D01*
X288783Y106571D01*
X288133Y106841D01*
X288011Y106875D01*
X287892Y106918D01*
X287844Y106923D01*
X287798Y106936D01*
X287672Y106942D01*
X287546Y106957D01*
X287498Y106951D01*
X287450Y106953D01*
X287325Y106931D01*
X287200Y106916D01*
X287142Y106897D01*
X287107Y106891D01*
X287063Y106871D01*
X286967Y106841D01*
X286317Y106571D01*
X276083Y106571D01*
X275433Y106841D01*
X275311Y106875D01*
X275192Y106918D01*
X275144Y106923D01*
X275098Y106936D01*
X274972Y106942D01*
X274846Y106957D01*
X274798Y106951D01*
X274750Y106953D01*
X274625Y106931D01*
X274500Y106916D01*
X274442Y106897D01*
X274407Y106891D01*
X274363Y106871D01*
X274267Y106841D01*
X273617Y106571D01*
X263383Y106571D01*
X260395Y107809D01*
X258109Y110095D01*
X257643Y111219D01*
X257606Y111286D01*
X257578Y111357D01*
X257522Y111438D01*
X257514Y111452D01*
X257509Y111489D01*
X257509Y111491D01*
X257508Y111493D01*
X257433Y111726D01*
X257207Y112272D01*
X257158Y112360D01*
X257118Y112452D01*
X257074Y112511D01*
X257038Y112576D01*
X256970Y112651D01*
X256911Y112732D01*
X256854Y112780D01*
X256804Y112835D01*
X256721Y112892D01*
X256645Y112957D01*
X256578Y112990D01*
X256517Y113033D01*
X256424Y113070D01*
X256334Y113115D01*
X256262Y113133D01*
X256193Y113161D01*
X256093Y113175D01*
X255996Y113200D01*
X255922Y113201D01*
X255848Y113211D01*
X255748Y113203D01*
X255648Y113205D01*
X255575Y113189D01*
X255501Y113183D01*
X255405Y113152D01*
X255307Y113130D01*
X255240Y113098D01*
X255169Y113075D01*
X255083Y113024D01*
X254992Y112980D01*
X254934Y112934D01*
X254871Y112896D01*
X254799Y112826D01*
X254720Y112763D01*
X254674Y112705D01*
X254621Y112653D01*
X254566Y112568D01*
X254504Y112490D01*
X254458Y112400D01*
X254432Y112360D01*
X254420Y112326D01*
X254393Y112272D01*
X254167Y111726D01*
X254166Y111724D01*
X254165Y111722D01*
X254118Y111554D01*
X254093Y111468D01*
X254068Y111437D01*
X254000Y111304D01*
X253976Y111263D01*
X253970Y111245D01*
X253957Y111219D01*
X253885Y111045D01*
X253884Y111043D01*
X253883Y111042D01*
X253837Y110877D01*
X253789Y110710D01*
X253789Y110708D01*
X253788Y110706D01*
X253769Y110462D01*
X253769Y104450D01*
X253783Y104324D01*
X253790Y104198D01*
X253803Y104152D01*
X253809Y104104D01*
X253851Y103985D01*
X253886Y103863D01*
X253910Y103821D01*
X253926Y103776D01*
X253995Y103670D01*
X254056Y103559D01*
X254096Y103513D01*
X254115Y103483D01*
X254150Y103449D01*
X254215Y103373D01*
X256473Y101115D01*
X256572Y101036D01*
X256666Y100952D01*
X256708Y100928D01*
X256746Y100898D01*
X256860Y100844D01*
X256971Y100783D01*
X257017Y100770D01*
X257061Y100749D01*
X257184Y100723D01*
X257306Y100688D01*
X257367Y100683D01*
X257402Y100676D01*
X257450Y100677D01*
X257550Y100669D01*
X304950Y100669D01*
X305076Y100683D01*
G37*
G36*
X347576Y40683D02*
X347576Y40683D01*
X347702Y40690D01*
X347748Y40703D01*
X347796Y40709D01*
X347915Y40751D01*
X348037Y40786D01*
X348079Y40810D01*
X348124Y40826D01*
X348230Y40895D01*
X348341Y40956D01*
X348387Y40996D01*
X348417Y41015D01*
X348451Y41050D01*
X348527Y41115D01*
X466885Y159473D01*
X466964Y159572D01*
X467048Y159666D01*
X467072Y159708D01*
X467102Y159746D01*
X467156Y159860D01*
X467217Y159971D01*
X467230Y160017D01*
X467251Y160061D01*
X467277Y160184D01*
X467312Y160306D01*
X467317Y160367D01*
X467324Y160402D01*
X467323Y160450D01*
X467331Y160550D01*
X467331Y249751D01*
X467314Y249900D01*
X467302Y250051D01*
X467294Y250074D01*
X467291Y250098D01*
X467241Y250239D01*
X467195Y250382D01*
X467182Y250403D01*
X467174Y250426D01*
X467092Y250552D01*
X467015Y250681D01*
X466998Y250698D01*
X466985Y250719D01*
X466877Y250823D01*
X466772Y250931D01*
X466752Y250944D01*
X466734Y250961D01*
X466605Y251038D01*
X466479Y251119D01*
X466456Y251127D01*
X466435Y251140D01*
X466292Y251185D01*
X466150Y251236D01*
X466126Y251238D01*
X466103Y251246D01*
X465954Y251258D01*
X465804Y251275D01*
X465780Y251272D01*
X465756Y251274D01*
X465607Y251251D01*
X465458Y251234D01*
X465430Y251225D01*
X465411Y251222D01*
X465367Y251205D01*
X465225Y251159D01*
X463981Y250643D01*
X463914Y250606D01*
X463843Y250578D01*
X463763Y250522D01*
X463676Y250474D01*
X463620Y250423D01*
X463557Y250379D01*
X463491Y250306D01*
X463418Y250240D01*
X463375Y250177D01*
X463324Y250120D01*
X463276Y250034D01*
X463220Y249953D01*
X463192Y249882D01*
X463155Y249815D01*
X463128Y249720D01*
X463092Y249629D01*
X463081Y249554D01*
X463060Y249480D01*
X463048Y249331D01*
X463041Y249284D01*
X463043Y249265D01*
X463041Y249236D01*
X463041Y248547D01*
X454024Y248547D01*
X453998Y248544D01*
X453972Y248546D01*
X453825Y248524D01*
X453678Y248507D01*
X453653Y248498D01*
X453627Y248495D01*
X453489Y248440D01*
X453350Y248390D01*
X453328Y248376D01*
X453303Y248366D01*
X453182Y248281D01*
X453057Y248201D01*
X453039Y248182D01*
X453017Y248167D01*
X452918Y248057D01*
X452815Y247950D01*
X452801Y247928D01*
X452784Y247908D01*
X452712Y247778D01*
X452636Y247651D01*
X452628Y247626D01*
X452615Y247603D01*
X452575Y247460D01*
X452530Y247319D01*
X452528Y247293D01*
X452520Y247268D01*
X452501Y247024D01*
X452501Y245499D01*
X450976Y245499D01*
X450950Y245496D01*
X450924Y245498D01*
X450777Y245476D01*
X450630Y245459D01*
X450605Y245450D01*
X450579Y245447D01*
X450441Y245392D01*
X450302Y245342D01*
X450280Y245328D01*
X450255Y245318D01*
X450134Y245233D01*
X450009Y245153D01*
X449991Y245134D01*
X449969Y245119D01*
X449870Y245009D01*
X449767Y244902D01*
X449753Y244880D01*
X449736Y244860D01*
X449664Y244730D01*
X449588Y244603D01*
X449580Y244578D01*
X449567Y244555D01*
X449527Y244412D01*
X449482Y244271D01*
X449480Y244245D01*
X449472Y244220D01*
X449453Y243976D01*
X449453Y236459D01*
X444692Y236459D01*
X444666Y236456D01*
X444640Y236458D01*
X444493Y236436D01*
X444346Y236419D01*
X444321Y236411D01*
X444295Y236407D01*
X444157Y236352D01*
X444018Y236302D01*
X443996Y236288D01*
X443971Y236278D01*
X443850Y236193D01*
X443725Y236113D01*
X443707Y236094D01*
X443685Y236079D01*
X443586Y235969D01*
X443483Y235862D01*
X443469Y235840D01*
X443452Y235820D01*
X443380Y235690D01*
X443304Y235563D01*
X443296Y235538D01*
X443283Y235515D01*
X443243Y235372D01*
X443198Y235231D01*
X443196Y235205D01*
X443188Y235180D01*
X443169Y234936D01*
X443169Y147878D01*
X441544Y143957D01*
X438329Y140741D01*
X340857Y43269D01*
X340795Y43191D01*
X340725Y43118D01*
X340686Y43054D01*
X340640Y42996D01*
X340597Y42905D01*
X340546Y42819D01*
X340523Y42748D01*
X340491Y42681D01*
X340470Y42583D01*
X340440Y42487D01*
X340434Y42413D01*
X340418Y42340D01*
X340420Y42240D01*
X340412Y42140D01*
X340423Y42066D01*
X340424Y41992D01*
X340448Y41895D01*
X340463Y41795D01*
X340491Y41726D01*
X340509Y41654D01*
X340555Y41564D01*
X340592Y41471D01*
X340634Y41410D01*
X340669Y41344D01*
X340734Y41267D01*
X340791Y41185D01*
X340846Y41135D01*
X340894Y41079D01*
X340975Y41019D01*
X341050Y40952D01*
X341115Y40916D01*
X341175Y40871D01*
X341267Y40832D01*
X341355Y40783D01*
X341427Y40763D01*
X341495Y40733D01*
X341593Y40716D01*
X341690Y40688D01*
X341790Y40680D01*
X341838Y40672D01*
X341873Y40674D01*
X341934Y40669D01*
X347450Y40669D01*
X347576Y40683D01*
G37*
G36*
X280774Y223554D02*
X280774Y223554D01*
X280800Y223552D01*
X280947Y223574D01*
X281094Y223591D01*
X281119Y223599D01*
X281145Y223603D01*
X281283Y223658D01*
X281422Y223708D01*
X281444Y223722D01*
X281469Y223732D01*
X281590Y223817D01*
X281715Y223897D01*
X281733Y223916D01*
X281755Y223931D01*
X281854Y224041D01*
X281957Y224148D01*
X281971Y224170D01*
X281988Y224190D01*
X282060Y224320D01*
X282136Y224447D01*
X282144Y224472D01*
X282157Y224495D01*
X282197Y224638D01*
X282242Y224779D01*
X282244Y224805D01*
X282252Y224830D01*
X282271Y225074D01*
X282271Y225526D01*
X282268Y225552D01*
X282270Y225578D01*
X282248Y225725D01*
X282231Y225872D01*
X282223Y225897D01*
X282219Y225923D01*
X282164Y226061D01*
X282114Y226200D01*
X282100Y226222D01*
X282090Y226247D01*
X282005Y226368D01*
X281925Y226493D01*
X281906Y226511D01*
X281891Y226533D01*
X281781Y226632D01*
X281674Y226735D01*
X281652Y226749D01*
X281632Y226766D01*
X281502Y226838D01*
X281375Y226914D01*
X281350Y226922D01*
X281327Y226935D01*
X281184Y226975D01*
X281043Y227020D01*
X281017Y227022D01*
X280992Y227030D01*
X280748Y227049D01*
X268952Y227049D01*
X268926Y227046D01*
X268900Y227048D01*
X268753Y227026D01*
X268606Y227009D01*
X268581Y227001D01*
X268555Y226997D01*
X268417Y226942D01*
X268278Y226892D01*
X268256Y226878D01*
X268231Y226868D01*
X268110Y226783D01*
X267985Y226703D01*
X267967Y226684D01*
X267945Y226669D01*
X267846Y226559D01*
X267743Y226452D01*
X267729Y226430D01*
X267712Y226410D01*
X267640Y226280D01*
X267564Y226153D01*
X267556Y226128D01*
X267543Y226105D01*
X267503Y225962D01*
X267458Y225821D01*
X267456Y225795D01*
X267448Y225770D01*
X267429Y225526D01*
X267429Y225074D01*
X267432Y225048D01*
X267430Y225022D01*
X267452Y224875D01*
X267469Y224728D01*
X267477Y224703D01*
X267481Y224677D01*
X267536Y224539D01*
X267586Y224400D01*
X267600Y224378D01*
X267610Y224353D01*
X267695Y224232D01*
X267775Y224107D01*
X267794Y224089D01*
X267809Y224067D01*
X267919Y223968D01*
X268026Y223865D01*
X268048Y223851D01*
X268068Y223834D01*
X268198Y223762D01*
X268325Y223686D01*
X268350Y223678D01*
X268373Y223665D01*
X268516Y223625D01*
X268657Y223580D01*
X268683Y223577D01*
X268708Y223570D01*
X268952Y223551D01*
X280748Y223551D01*
X280774Y223554D01*
G37*
%LPC*%
G36*
X455547Y236459D02*
X455547Y236459D01*
X455547Y242453D01*
X463041Y242453D01*
X463041Y238665D01*
X462868Y238019D01*
X462533Y237440D01*
X462060Y236967D01*
X461481Y236632D01*
X460835Y236459D01*
X455547Y236459D01*
G37*
%LPD*%
D10*
X1100000Y640000D02*
X1100000Y641350D01*
X0Y342500D02*
X0Y0D01*
X385000Y0D01*
X547500Y342500D02*
X0Y342500D01*
X385000Y0D02*
X547500Y162500D01*
X547500Y342500D01*
D11*
X293900Y225300D03*
X281200Y225300D03*
X268500Y225300D03*
X255800Y225300D03*
X243100Y225300D03*
X230400Y225300D03*
X217700Y225300D03*
X205000Y225300D03*
X192300Y225300D03*
X179600Y225300D03*
X166900Y225300D03*
X154200Y225300D03*
X154200Y123700D03*
X166900Y123700D03*
X179600Y123700D03*
X192300Y123700D03*
X205000Y123700D03*
X217700Y123700D03*
X230400Y123700D03*
X243100Y123700D03*
X255800Y123700D03*
X268500Y123700D03*
X281200Y123700D03*
X293900Y123700D03*
D12*
X528800Y294880D02*
X528800Y310120D01*
X503400Y310120D02*
X503400Y294880D01*
X478000Y294880D02*
X478000Y310120D01*
X452600Y310120D02*
X452600Y294880D01*
X427200Y294880D02*
X427200Y310120D01*
X401800Y310120D02*
X401800Y294880D01*
X376400Y294880D02*
X376400Y310120D01*
X351000Y310120D02*
X351000Y294880D01*
X325600Y294880D02*
X325600Y310120D01*
X300200Y310120D02*
X300200Y294880D01*
X274800Y294880D02*
X274800Y310120D01*
X249400Y310120D02*
X249400Y294880D01*
X224000Y294880D02*
X224000Y310120D01*
X198600Y310120D02*
X198600Y294880D01*
X173200Y294880D02*
X173200Y310120D01*
X147800Y310120D02*
X147800Y294880D01*
X122400Y294880D02*
X122400Y310120D01*
X97000Y310120D02*
X97000Y294880D01*
X71600Y294880D02*
X71600Y310120D01*
X46200Y310120D02*
X46200Y294880D01*
D13*
X100200Y124200D03*
X74800Y124200D03*
X100200Y149600D03*
X74800Y149600D03*
X100200Y175000D03*
X74800Y175000D03*
X100200Y200400D03*
X74800Y200400D03*
X100200Y225800D03*
X74800Y225800D03*
D14*
X130000Y207500D03*
X130000Y222500D03*
X130000Y192500D03*
D15*
X452500Y245500D03*
X452500Y264500D03*
D16*
X59500Y267500D03*
X40500Y267500D03*
D17*
X281200Y248700D02*
X281200Y225300D01*
X281200Y248700D02*
X287500Y255000D01*
X305000Y255000D01*
D18*
X305000Y255000D03*
X452500Y220000D03*
D17*
X450000Y217500D02*
X451250Y216250D01*
X503400Y241600D02*
X503400Y302500D01*
X503400Y241600D02*
X505000Y240000D01*
X505000Y222500D01*
X502500Y220000D01*
D18*
X502500Y220000D03*
D17*
X268500Y225300D02*
X268500Y236000D01*
X281200Y248700D01*
X97000Y248000D02*
X74800Y225800D01*
X97000Y248000D02*
X97000Y252500D01*
X97000Y302500D01*
X154200Y238300D02*
X154200Y225300D01*
X154200Y238300D02*
X140000Y252500D01*
X97000Y252500D01*
X268500Y225300D02*
X268500Y219000D01*
X307500Y180000D02*
X312500Y180000D01*
X312500Y112500D02*
X302500Y102500D01*
X307500Y180000D02*
X268500Y219000D01*
X312500Y180000D02*
X312500Y112500D01*
X255800Y106700D02*
X255800Y123700D01*
X255800Y106700D02*
X260000Y102500D01*
X302500Y102500D01*
D19*
X452500Y220000D02*
X452500Y241000D01*
X452500Y220000D02*
X450000Y217500D01*
D17*
X452500Y269000D02*
X452642Y302458D01*
X452600Y302500D01*
X230400Y267900D02*
X230400Y225300D01*
X230400Y267900D02*
X250000Y287500D01*
X250000Y301900D01*
X249400Y302500D01*
X243100Y255600D02*
X243100Y225300D01*
X243100Y255600D02*
X275000Y287500D01*
X275000Y302300D01*
X274800Y302500D01*
X74800Y175000D02*
X72300Y172500D01*
X57500Y172500D01*
X42500Y157500D01*
X42500Y90000D02*
X85000Y47500D01*
X147500Y47500D01*
X180000Y80000D01*
X180000Y123300D01*
X179600Y123700D01*
X42500Y90000D02*
X42500Y157500D01*
X427200Y302500D02*
X432500Y297200D01*
X205000Y123700D02*
X205000Y72500D01*
X232500Y45000D02*
X327500Y45000D01*
X432500Y150000D01*
X232500Y45000D02*
X205000Y72500D01*
X432500Y150000D02*
X432500Y297200D01*
X166900Y123700D02*
X166900Y86900D01*
X140000Y60000D01*
X90000Y60000D01*
X55000Y95000D02*
X55000Y135000D01*
X69600Y149600D01*
X74800Y149600D01*
X55000Y95000D02*
X90000Y60000D01*
X75000Y124000D02*
X74800Y124200D01*
X75000Y92500D02*
X90000Y77500D01*
X137500Y77500D01*
X154200Y94200D02*
X154200Y123700D01*
X75000Y124000D02*
X75000Y92500D01*
X137500Y77500D02*
X154200Y94200D01*
X280000Y124900D02*
X281200Y123700D01*
X280000Y124900D02*
X280000Y160000D01*
X265000Y175000D01*
X100200Y175000D01*
X268500Y144000D02*
X268500Y123700D01*
X268500Y144000D02*
X262500Y150000D01*
X100600Y150000D01*
X100200Y149600D01*
X35100Y268900D02*
X34425Y290725D01*
X46200Y302500D01*
D19*
X40500Y267500D02*
X36500Y267500D01*
X35100Y268900D01*
D17*
X401800Y258200D02*
X401800Y302500D01*
X217700Y123700D02*
X217700Y79800D01*
X237500Y60000D01*
X317500Y60000D01*
X402500Y145000D01*
X402500Y257500D02*
X401800Y258200D01*
X402500Y257500D02*
X402500Y145000D01*
X377300Y301600D02*
X376400Y302500D01*
X100200Y124200D02*
X100200Y104800D01*
X107500Y97500D01*
D18*
X107500Y97500D03*
X377500Y222500D03*
D17*
X377300Y222700D01*
X377300Y301600D01*
X243100Y123700D02*
X243100Y103100D01*
X242500Y102500D01*
X242500Y100000D01*
X252500Y90000D01*
X310000Y90000D01*
X325600Y105600D02*
X325600Y302500D01*
X325600Y105600D02*
X310000Y90000D01*
X255800Y225300D02*
X255800Y248300D01*
X300200Y292700D02*
X300200Y302500D01*
X300200Y292700D02*
X255800Y248300D01*
X217700Y225300D02*
X217700Y277700D01*
X224000Y284000D02*
X224000Y302500D01*
X224000Y284000D02*
X217700Y277700D01*
X147800Y290000D02*
X147800Y302500D01*
X179600Y258200D02*
X179600Y225300D01*
X179600Y258200D02*
X147800Y290000D01*
X477500Y302000D02*
X478000Y302500D01*
X130000Y192500D02*
X107500Y192500D01*
X103170Y192500D01*
X107500Y193100D02*
X100200Y200400D01*
X107500Y193100D02*
X107500Y192500D01*
X100200Y200400D02*
X74800Y200400D01*
X74400Y200000D01*
X50000Y200000D01*
X27500Y177500D01*
X27500Y77500D01*
X75000Y30000D01*
X352500Y30000D01*
X478000Y155500D02*
X478000Y302500D01*
X478000Y155500D02*
X352500Y30000D01*
X71600Y318900D02*
X82500Y329800D01*
X462500Y329800D01*
X477500Y314800D01*
X477500Y303000D02*
X478000Y302500D01*
X477500Y303000D02*
X477500Y314800D01*
D19*
X71600Y318900D02*
X71600Y302500D01*
D17*
X350000Y301500D02*
X351000Y302500D01*
X230400Y123700D02*
X230400Y89600D01*
X245000Y75000D01*
X315000Y75000D01*
X350000Y110000D01*
X350000Y301500D01*
X166900Y248100D02*
X166900Y225300D01*
X122400Y292600D02*
X122400Y302500D01*
X122400Y292600D02*
X166900Y248100D01*
X198600Y283900D02*
X198600Y302500D01*
X198600Y283900D02*
X205000Y277500D01*
X205000Y225300D01*
X173200Y286800D02*
X173200Y302500D01*
X173200Y286800D02*
X192500Y267500D01*
X192500Y225500D01*
X192300Y225300D01*
X192300Y123700D02*
X192300Y55200D01*
X192500Y55000D01*
X192500Y52500D01*
D18*
X192500Y52500D03*
X62500Y250000D03*
D17*
X63100Y250000D01*
X63100Y268900D01*
D19*
X59500Y267500D02*
X62500Y264500D01*
X62500Y250000D01*
D17*
X130000Y207500D02*
X147500Y207500D01*
X160000Y195000D01*
X275000Y195000D02*
X295000Y175000D01*
X295000Y124800D01*
X293900Y123700D01*
X275000Y195000D02*
X160000Y195000D01*
X103500Y222500D02*
X100200Y225800D01*
X103500Y222500D02*
X130000Y222500D01*
M02*
