M48
;GenerationSoftware,Autodesk,EAGLE,9.6.2*%
;CreationDate,2025-05-11T12:39:33Z*%
FMAT,2
ICI,OFF
METRIC,TZ,000.000
T2C0.900
T1C1.016
%
G90
M71
T1
X24940Y30250
X7480Y14960
X10020Y17500
X7480Y17500
X10020Y20040
X7480Y20040
X10020Y22580
X52880Y30250
X50340Y30250
X47800Y30250
X45260Y30250
X42720Y30250
X40180Y30250
X37640Y30250
X35100Y30250
X32560Y30250
X30020Y30250
X27480Y30250
X7480Y22580
X22400Y30250
X19860Y30250
X17320Y30250
X14780Y30250
X12240Y30250
X9700Y30250
X7160Y30250
X4620Y30250
X10020Y12420
X7480Y12420
X10020Y14960
T2
X45250Y22000
X50250Y22000
X10750Y9750
X37750Y22250
X19250Y5250
X6250Y25000
X30500Y25500
M30